<svg width="183" height="81" viewBox="0 0 183 81" fill="none" xmlns="http://www.w3.org/2000/svg">
<path d="M10.351 75.4469C9.73828 75.5648 9.44159 75.874 9.44159 76.3802C9.44159 76.9486 9.80776 77.2789 10.4581 77.2789C11.4034 77.2789 12.1596 76.6895 12.1596 75.8028V75.0232C11.5924 75.3057 10.9655 75.329 10.351 75.4469ZM10.1494 78.3432C8.87441 78.3432 8.14209 77.6336 8.14209 76.5004C8.14209 75.0232 9.12099 74.6195 10.7889 74.4094C11.8891 74.2658 12.1716 74.2545 12.1716 73.6742C12.1716 73.0723 11.7576 72.7989 10.8966 72.7989C10.08 72.7989 9.64318 73.1548 9.64318 73.7795V73.8274H8.38923V73.722C8.38923 72.5051 9.33568 71.7118 10.9393 71.7118C12.5975 71.7118 13.4489 72.3382 13.4489 73.5574V76.6428C13.4489 77.0197 13.4848 77.2196 13.8247 77.2196C13.8987 77.2196 13.9921 77.2077 14.0861 77.1963V78.1661C13.8606 78.2253 13.6385 78.2583 13.413 78.2583C12.6089 78.2583 12.2291 77.9525 12.2188 77.3153C11.7126 77.9759 10.9655 78.3432 10.1494 78.3432Z" fill="white"/>
<path d="M16.4808 70.1994V71.9135H17.524V72.8941H16.4808V76.5592C16.4808 76.9732 16.5656 77.1252 17.003 77.1252C17.0964 77.1252 17.1795 77.1132 17.2638 77.1132L17.524 77.103V78.1542C17.1687 78.1895 16.8618 78.2254 16.5907 78.2254C15.4905 78.2254 15.1705 77.775 15.1705 76.7237V72.8941H14.2855V71.9135H15.1705V70.1994H16.4808Z" fill="white"/>
<path d="M19.85 78.1419H18.5249V71.9137H19.85V78.1419ZM19.85 70.9792H18.5249V69.6433H19.85V70.9792Z" fill="white"/>
<path d="M22.4253 75.0343C22.4253 76.4534 23.0398 77.2073 24.1383 77.2073C25.2265 77.2073 25.8415 76.4534 25.8415 75.0343C25.8415 73.6027 25.2265 72.8487 24.1383 72.8487C23.0398 72.8487 22.4253 73.6163 22.4253 75.0343ZM27.1889 75.0343C27.1889 77.1128 26.0312 78.3434 24.1383 78.3434C22.2357 78.3434 21.078 77.1253 21.078 75.0343C21.078 72.9398 22.2243 71.7121 24.1252 71.7121C26.0312 71.7121 27.1889 72.9523 27.1889 75.0343Z" fill="white"/>
<path d="M33.769 78.1419H32.4456V74.3345V74.052C32.4456 73.2958 32.043 72.8835 31.3101 72.8835C30.3306 72.8835 29.727 73.474 29.727 74.5258V78.1419H28.4019V71.9137H29.6797V72.7519C30.1176 72.1147 30.8027 71.7611 31.584 71.7611C33.3305 71.7611 33.769 72.5988 33.769 74.1836V78.1419Z" fill="white"/>
<path d="M37.1237 75.4469C36.5093 75.5648 36.2143 75.874 36.2143 76.3802C36.2143 76.9486 36.5799 77.2789 37.2291 77.2789C38.1738 77.2789 38.9318 76.6895 38.9318 75.8028V75.0232C38.3651 75.3057 37.7387 75.329 37.1237 75.4469ZM36.9227 78.3432C35.6454 78.3432 34.9131 77.6336 34.9131 76.5004C34.9131 75.0232 35.8937 74.6195 37.5616 74.4094C38.6607 74.2658 38.9426 74.2545 38.9426 73.6742C38.9426 73.0723 38.5303 72.7989 37.6664 72.7989C36.8515 72.7989 36.4153 73.1548 36.4153 73.7795V73.8274H35.1591V73.722C35.1591 72.5051 36.1061 71.7118 37.7143 71.7118C39.368 71.7118 40.2221 72.3382 40.2221 73.5574V76.6428C40.2221 77.0197 40.2552 77.2196 40.598 77.2196C40.6692 77.2196 40.7637 77.2077 40.8582 77.1963V78.1661C40.6339 78.2253 40.4089 78.2583 40.1857 78.2583C39.3805 78.2583 39.0041 77.9525 38.9904 77.3153C38.4819 77.9759 37.7387 78.3432 36.9227 78.3432Z" fill="white"/>
<path d="M43.1369 78.1419H41.8135V69.6433H43.1369V78.1419Z" fill="white"/>
<path d="M53.9608 69.6433V70.8859H51.3492V78.1419H49.9415V70.8859H47.3169V69.6433H53.9608Z" fill="white"/>
<path d="M57.0656 73.1424H56.712C55.6477 73.1424 55.1152 73.6743 55.1152 74.7495V78.1417H53.8043V71.9135H55.0429V73.012C55.4119 72.1738 55.9888 71.7723 56.7689 71.7723C56.7945 71.7723 56.8999 71.7831 57.0656 71.7831V73.1424Z" fill="white"/>
<path d="M59.8529 75.4469C59.2384 75.5648 58.9435 75.874 58.9435 76.3802C58.9435 76.9486 59.3102 77.2789 59.9588 77.2789C60.9064 77.2789 61.6615 76.6895 61.6615 75.8028V75.0232C61.0943 75.3057 60.4685 75.329 59.8529 75.4469ZM59.6524 78.3432C58.3763 78.3432 57.6445 77.6336 57.6445 76.5004C57.6445 75.0232 58.6257 74.6195 60.2908 74.4094C61.3893 74.2658 61.6735 74.2545 61.6735 73.6742C61.6735 73.0723 61.26 72.7989 60.3973 72.7989C59.5801 72.7989 59.1451 73.1548 59.1451 73.7795V73.8274H57.8917V73.722C57.8917 72.5051 58.8364 71.7118 60.4446 71.7118C62.0988 71.7118 62.9507 72.3382 62.9507 73.5574V76.6428C62.9507 77.0197 62.9872 77.2196 63.3272 77.2196C63.3995 77.2196 63.4923 77.2077 63.588 77.1963V78.1661C63.3653 78.2253 63.1404 78.2583 62.9126 78.2583C62.1119 78.2583 61.7338 77.9525 61.7196 77.3153C61.2122 77.9759 60.4685 78.3432 59.6524 78.3432Z" fill="white"/>
<path d="M65.5246 75.0688C65.5246 76.4167 66.1516 77.1843 67.1538 77.1843C68.2204 77.1843 68.8087 76.4281 68.8087 74.9862C68.8087 73.5916 68.2301 72.8724 67.1538 72.8724C66.1516 72.8724 65.5246 73.6497 65.5246 75.0688ZM70.0643 69.6436V78.1416H68.7996V77.3267C68.2688 78.0248 67.6766 78.3432 66.8589 78.3432C65.2986 78.3432 64.1881 77.0676 64.1881 75.0585C64.1881 72.9891 65.3253 71.7118 66.8486 71.7118C67.6863 71.7118 68.3247 72.0324 68.7848 72.681V69.6436H70.0643Z" fill="white"/>
<path d="M74.1976 72.8354C73.2985 72.8354 72.7791 73.4026 72.696 74.4316H75.6873C75.6742 73.4026 75.131 72.8354 74.1976 72.8354ZM72.696 75.3877C72.7187 76.5591 73.2985 77.1963 74.2796 77.1963C74.9903 77.1963 75.4966 76.8182 75.6611 76.1798H76.9755C76.7369 77.4691 75.6372 78.3432 74.1976 78.3432C72.434 78.3432 71.3264 77.1132 71.3264 75.0107C71.3264 72.9402 72.4232 71.7119 74.2335 71.7119C75.9556 71.7119 77.0688 72.8832 77.0688 74.9276C77.0688 75.0688 77.0563 75.222 77.0449 75.3877H72.696Z" fill="white"/>
<path d="M81.689 73.7218C81.6537 73.108 81.1925 72.7765 80.3759 72.7765C79.6777 72.7765 79.3247 73.0721 79.3247 73.4491C79.3247 73.8989 79.6897 74.0891 80.3639 74.2401L81.156 74.4194C82.4794 74.7264 83.1537 75.1165 83.1537 76.2622C83.1537 77.5503 82.1822 78.343 80.459 78.343C78.7586 78.343 77.8127 77.5298 77.8127 76.1221H79.11C79.1698 76.8903 79.6555 77.2565 80.5769 77.2565C81.3804 77.2565 81.8303 76.9131 81.8303 76.4279C81.8303 75.9797 81.4732 75.8249 80.8611 75.6728L79.9283 75.4359C78.6271 75.1165 77.9887 74.6671 77.9887 73.6495C77.9887 72.4907 78.8879 71.7122 80.4209 71.7122C82.0068 71.7122 82.9754 72.5152 82.9754 73.7218H81.689Z" fill="white"/>
<path d="M89.1199 69.6433V74.9273C89.1199 76.3709 89.7081 77.0787 91.0572 77.0787C92.4039 77.0787 93.0076 76.3709 93.0076 74.9273V69.6433H94.4261V75.011C94.4261 77.1966 93.1727 78.3777 91.0572 78.3777C88.8465 78.3777 87.7002 77.2331 87.7002 75.011V69.6433H89.1199Z" fill="white"/>
<path d="M101.406 78.1419H100.082V74.3345V74.052C100.082 73.2958 99.6803 72.8835 98.9485 72.8835C97.9668 72.8835 97.3643 73.474 97.3643 74.5258V78.1419H96.0392V71.9137H97.3176V72.7519C97.755 72.1147 98.4423 71.7611 99.2208 71.7611C100.969 71.7611 101.406 72.5988 101.406 74.1836V78.1419Z" fill="white"/>
<path d="M104.243 78.1419H102.919V71.9137H104.243V78.1419ZM104.243 70.9792H102.919V69.6433H104.243V70.9792Z" fill="white"/>
<path d="M106.816 75.0343C106.816 76.4534 107.43 77.2073 108.531 77.2073C109.618 77.2073 110.231 76.4534 110.231 75.0343C110.231 73.6027 109.618 72.8487 108.531 72.8487C107.43 72.8487 106.816 73.6163 106.816 75.0343ZM111.58 75.0343C111.58 77.1128 110.422 78.3434 108.531 78.3434C106.628 78.3434 105.469 77.1253 105.469 75.0343C105.469 72.9398 106.615 71.7121 108.518 71.7121C110.422 71.7121 111.58 72.9523 111.58 75.0343Z" fill="white"/>
<path d="M118.162 78.1419H116.836V74.3345V74.052C116.836 73.2958 116.435 72.8835 115.703 72.8835C114.722 72.8835 114.116 73.474 114.116 74.5258V78.1419H112.794V71.9137H114.071V72.7519C114.509 72.1147 115.196 71.7611 115.973 71.7611C117.722 71.7611 118.162 72.5988 118.162 74.1836V78.1419Z" fill="white"/>
<path d="M128.853 72.3027C128.699 71.2748 127.918 70.682 126.701 70.682C125.072 70.682 124.147 71.842 124.147 73.8419C124.147 75.8965 125.13 77.1032 126.68 77.1032C127.918 77.1032 128.805 76.3123 128.898 75.0919H130.284C130.21 77.0195 128.713 78.3777 126.619 78.3777C124.195 78.3777 122.707 76.6892 122.707 73.8989C122.707 71.0761 124.209 69.4201 126.726 69.4201C128.792 69.4201 130.094 70.5311 130.248 72.3027H128.853Z" fill="white"/>
<path d="M132.548 75.0343C132.548 76.4534 133.166 77.2073 134.262 77.2073C135.349 77.2073 135.964 76.4534 135.964 75.0343C135.964 73.6027 135.349 72.8487 134.262 72.8487C133.166 72.8487 132.548 73.6163 132.548 75.0343ZM137.309 75.0343C137.309 77.1128 136.157 78.3434 134.262 78.3434C132.357 78.3434 131.201 77.1253 131.201 75.0343C131.201 72.9398 132.35 71.7121 134.251 71.7121C136.157 71.7121 137.309 72.9523 137.309 75.0343Z" fill="white"/>
<path d="M143.891 78.1419H142.569V74.3345V74.052C142.569 73.2958 142.167 72.8835 141.433 72.8835C140.454 72.8835 139.85 73.474 139.85 74.5258V78.1419H138.527V71.9137H139.803V72.7519C140.241 72.1147 140.928 71.7611 141.707 71.7611C143.454 71.7611 143.891 72.5988 143.891 74.1836V78.1419Z" fill="white"/>
<path d="M148.074 77.113C149.161 77.113 149.704 76.4166 149.704 74.9986C149.704 73.5915 149.124 72.8586 148.026 72.8586C147.045 72.8586 146.43 73.6274 146.43 74.94C146.43 76.371 147.034 77.113 148.074 77.113ZM147.814 78.2474C146.148 78.2474 145.083 76.9484 145.083 75.0111C145.083 72.9998 146.158 71.7123 147.825 71.7123C148.642 71.7123 149.233 72.0192 149.692 72.694V71.9133H150.957V77.8829C150.957 79.8088 150.199 80.72 148.002 80.72C146.278 80.72 145.319 79.9745 145.308 78.8168H146.665C146.704 79.3476 147.163 79.63 148.002 79.63C149.256 79.63 149.68 79.1226 149.68 78.0475V77.3266C149.279 77.9296 148.642 78.2474 147.814 78.2474Z" fill="white"/>
<path d="M155.756 73.1424H155.399C154.337 73.1424 153.805 73.6743 153.805 74.7495V78.1417H152.491V71.9135H153.731V73.012C154.1 72.1738 154.678 71.7723 155.459 71.7723C155.483 71.7723 155.588 71.7831 155.756 71.7831V73.1424Z" fill="white"/>
<path d="M159.251 72.8354C158.352 72.8354 157.833 73.4026 157.749 74.4316H160.74C160.727 73.4026 160.188 72.8354 159.251 72.8354ZM157.749 75.3877C157.772 76.5591 158.352 77.1963 159.333 77.1963C160.044 77.1963 160.551 76.8182 160.715 76.1798H162.029C161.79 77.4691 160.692 78.3432 159.251 78.3432C157.489 78.3432 156.38 77.1132 156.38 75.0107C156.38 72.9402 157.479 71.7119 159.286 71.7119C161.013 71.7119 162.125 72.8832 162.125 74.9276C162.125 75.0688 162.112 75.222 162.1 75.3877H157.749Z" fill="white"/>
<path d="M166.743 73.7218C166.706 73.108 166.246 72.7765 165.429 72.7765C164.732 72.7765 164.38 73.0721 164.38 73.4491C164.38 73.8989 164.745 74.0891 165.418 74.2401L166.21 74.4194C167.533 74.7264 168.208 75.1165 168.208 76.2622C168.208 77.5503 167.239 78.343 165.512 78.343C163.81 78.343 162.864 77.5298 162.864 76.1221H164.165C164.224 76.8903 164.709 77.2565 165.631 77.2565C166.434 77.2565 166.884 76.9131 166.884 76.4279C166.884 75.9797 166.528 75.8249 165.917 75.6728L164.982 75.4359C163.681 75.1165 163.044 74.6671 163.044 73.6495C163.044 72.4907 163.941 71.7122 165.477 71.7122C167.062 71.7122 168.03 72.5152 168.03 73.7218H166.743Z" fill="white"/>
<path d="M172.861 73.7218C172.826 73.108 172.365 72.7765 171.55 72.7765C170.851 72.7765 170.497 73.0721 170.497 73.4491C170.497 73.8989 170.864 74.0891 171.539 74.2401L172.33 74.4194C173.653 74.7264 174.328 75.1165 174.328 76.2622C174.328 77.5503 173.358 78.343 171.633 78.343C169.928 78.343 168.985 77.5298 168.985 76.1221H170.287C170.343 76.8903 170.828 77.2565 171.751 77.2565C172.552 77.2565 173.002 76.9131 173.002 76.4279C173.002 75.9797 172.649 75.8249 172.034 75.6728L171.098 75.4359C169.8 75.1165 169.163 74.6671 169.163 73.6495C169.163 72.4907 170.059 71.7122 171.595 71.7122C173.182 71.7122 174.153 72.5152 174.153 73.7218H172.861Z" fill="white"/>
<path d="M84.8299 13.8934H79.0773L81.6079 1.77132C81.7657 0.992302 81.1763 0.697891 80.1587 0.721237H68.3333C67.6682 0.721237 67.1021 1.44047 66.7639 3.00078L64.4912 13.8934H59.8096C59.1445 13.8934 58.5768 14.6149 58.2379 16.1855L56.9037 22.3106H62.6552L58.2379 42.9005C57.6559 45.5678 57.4862 47.652 57.4862 48.7334C57.4862 55.3215 61.7384 58.7388 70.0753 58.7388C72.3263 58.7388 74.5768 58.4888 77.0796 58.154L78.0744 53.5641C78.2441 52.7789 77.6456 52.3626 76.6252 52.5226V52.5106C76.2795 52.5539 75.9606 52.5864 75.6913 52.5864C73.1936 52.5864 71.8571 51.4173 71.8571 49.4179C71.8571 48.6674 72.0251 46.9971 72.5228 44.4984L77.2436 22.3106H84.7468L86.2764 14.9514C86.4444 14.165 85.851 13.8689 84.8299 13.8934Z" fill="white"/>
<path d="M36.7614 12.6413C31.1767 12.6413 26.2583 15.1447 21.5045 20.1457L22.616 14.9476C22.7772 14.1624 22.1867 13.8691 21.1662 13.8936H10.5031C9.8374 13.8936 9.26908 14.6145 8.93253 16.1856L8.93196 16.1845L0 58.1542H14.4187L19.3405 35.0649C20.8399 27.9808 24.7578 24.063 29.8425 24.063C33.1761 24.063 34.762 25.7292 34.762 29.1465C34.762 29.6465 34.5946 31.5627 33.9261 34.7306L29.0088 58.1542H43.4298L48.5982 33.6509C49.3487 30.3145 49.6807 27.396 49.6807 25.1449C49.6807 17.2272 45.0966 12.6413 36.7614 12.6413Z" fill="white"/>
<path d="M179.856 14.5802C178.548 14.32 177.248 14.1292 175.894 13.9925C158.437 12.7995 147.096 21.4889 144.747 35.9987C142.563 49.5507 151.563 59.6711 166.437 58.6381C172.049 58.2508 174.91 57.4445 177.67 55.9309L178.598 47.1322C178.673 46.4255 178.389 45.7695 177.511 46.2654V46.2615C173.858 48.2289 171.107 48.295 168.464 48.3195C160.06 48.3975 155.831 42.7963 159.401 33.2169C162.133 25.8891 171.386 22.0794 180.864 25.4665L182.424 18.1046C182.823 16.2202 182.034 15.1052 179.856 14.5802Z" fill="white"/>
<path d="M123.89 17.968C123.264 18.378 122.727 18.6491 122.387 19.9822L118.291 38.4708C118.142 39.1866 118.049 39.8512 118.004 40.4747C117.715 44.6335 119.714 46.7968 123.674 46.7968C127.813 46.7968 130.471 44.5538 131.938 40.567C131.939 40.551 131.944 40.5385 131.951 40.522C132.137 39.891 132.315 39.2487 132.475 38.5841C132.482 38.5465 132.492 38.5072 132.501 38.4708L137.72 14.7779C138.433 11.4113 125.269 17.0648 123.89 17.968ZM116.416 58.4297C112.719 58.7247 103.967 59.1661 98.5201 57.3318H98.5258C90.436 54.9384 87.7397 48.3224 90.1052 37.1633L93.8545 20.2601C94.1922 18.6907 94.7611 18.4019 95.4239 17.968C96.8043 17.0648 109.972 11.4113 109.256 14.7779L104.06 38.4708C103.911 39.1866 103.815 39.8512 103.769 40.4747V40.4918C102.605 49.5849 105.476 55.103 112.614 57.2789C112.708 57.3068 112.812 57.3364 112.928 57.3688C113.213 57.4508 113.509 57.522 113.81 57.5932C114.482 57.7527 115.322 57.9241 116.296 58.0653C116.848 58.1393 116.955 58.3853 116.416 58.4297Z" fill="white"/>
<path d="M1.50321 69.6429L5.46322 76.0015V69.6429H6.83391V78.1415H5.34364L1.36141 71.783V78.1415H0.000976562V69.6429H1.50321Z" fill="white"/>
</svg>
