<svg width="64" height="64" viewBox="0 0 64 64" fill="none" xmlns="http://www.w3.org/2000/svg">
<path d="M10.088 7.53608L32 2.66675L53.912 7.53608C54.5042 7.66772 55.0338 7.99732 55.4134 8.47049C55.793 8.94367 55.9999 9.53212 56 10.1387V36.7707C55.9998 39.4047 55.3494 41.9979 54.1064 44.3201C52.8634 46.6423 51.0663 48.6218 48.8747 50.0827L32 61.3334L15.1253 50.0827C12.9341 48.622 11.1372 46.643 9.89426 44.3213C8.6513 41.9996 8.00063 39.4069 8 36.7734V10.1387C8.0001 9.53212 8.20703 8.94367 8.58664 8.47049C8.96624 7.99732 9.49583 7.66772 10.088 7.53608ZM13.3333 12.2774V36.7707C13.3334 38.5266 13.7669 40.2554 14.5954 41.8035C15.4239 43.3517 16.6217 44.6713 18.0827 45.6454L32 54.9254L45.9173 45.6454C47.3779 44.6716 48.5755 43.3523 49.404 41.8047C50.2325 40.257 50.6662 38.5289 50.6667 36.7734V12.2774L32 8.13341L13.3333 12.2774Z" fill="#121212"/>
</svg>
