<svg width="64" height="64" viewBox="0 0 64 64" fill="none" xmlns="http://www.w3.org/2000/svg">
<path d="M5.33334 58.6667C5.33334 53.0088 7.58096 47.5826 11.5817 43.5818C15.5825 39.581 21.0087 37.3334 26.6667 37.3334C32.3246 37.3334 37.7508 39.581 41.7516 43.5818C45.7524 47.5826 48 53.0088 48 58.6667H42.6667C42.6667 54.4233 40.981 50.3536 37.9804 47.353C34.9798 44.3525 30.9101 42.6667 26.6667 42.6667C22.4232 42.6667 18.3536 44.3525 15.353 47.353C12.3524 50.3536 10.6667 54.4233 10.6667 58.6667H5.33334ZM26.6667 34.6667C17.8267 34.6667 10.6667 27.5067 10.6667 18.6667C10.6667 9.82675 17.8267 2.66675 26.6667 2.66675C35.5067 2.66675 42.6667 9.82675 42.6667 18.6667C42.6667 27.5067 35.5067 34.6667 26.6667 34.6667ZM26.6667 29.3334C32.56 29.3334 37.3333 24.5601 37.3333 18.6667C37.3333 12.7734 32.56 8.00008 26.6667 8.00008C20.7733 8.00008 16 12.7734 16 18.6667C16 24.5601 20.7733 29.3334 26.6667 29.3334ZM48.7573 39.2081C52.5049 40.8959 55.6853 43.6301 57.9162 47.082C60.1472 50.5339 61.3338 54.5567 61.3333 58.6667H56C56.0006 55.584 55.1108 52.5667 53.4376 49.9776C51.7643 47.3885 49.3789 45.3378 46.568 44.0721L48.7547 39.2081H48.7573ZM46.9227 9.10142C49.6094 10.2089 51.9066 12.0895 53.5227 14.5047C55.1389 16.9199 56.0011 19.7607 56 22.6667C56.0011 26.3263 54.6339 29.854 52.1668 32.557C49.6997 35.2599 46.3111 36.9427 42.6667 37.2747V31.9067C44.6425 31.6238 46.4756 30.7148 47.8968 29.3133C49.318 27.9118 50.2525 26.0916 50.5631 24.1199C50.8737 22.1482 50.544 20.1289 49.6224 18.3584C48.7008 16.5878 47.2359 15.1594 45.4427 14.2827L46.9227 9.10142Z" fill="#121212"/>
</svg>
