<svg width="64" height="64" viewBox="0 0 64 64" fill="none" xmlns="http://www.w3.org/2000/svg">
<path d="M32 58.6666C17.272 58.6666 5.33331 46.7279 5.33331 31.9999C5.33331 17.2719 17.272 5.33325 32 5.33325C46.728 5.33325 58.6666 17.2719 58.6666 31.9999C58.6666 46.7279 46.728 58.6666 32 58.6666ZM32 53.3333C37.6579 53.3333 43.0842 51.0856 47.0849 47.0849C51.0857 43.0841 53.3333 37.6579 53.3333 31.9999C53.3333 26.342 51.0857 20.9158 47.0849 16.915C43.0842 12.9142 37.6579 10.6666 32 10.6666C26.342 10.6666 20.9158 12.9142 16.915 16.915C12.9143 20.9158 10.6666 26.342 10.6666 31.9999C10.6666 37.6579 12.9143 43.0841 16.915 47.0849C20.9158 51.0856 26.342 53.3333 32 53.3333ZM22.6666 37.3333H37.3333C37.6869 37.3333 38.0261 37.1928 38.2761 36.9427C38.5262 36.6927 38.6666 36.3535 38.6666 35.9999C38.6666 35.6463 38.5262 35.3072 38.2761 35.0571C38.0261 34.8071 37.6869 34.6666 37.3333 34.6666H26.6666C24.8985 34.6666 23.2028 33.9642 21.9526 32.714C20.7024 31.4637 20 29.768 20 27.9999C20 26.2318 20.7024 24.5361 21.9526 23.2859C23.2028 22.0356 24.8985 21.3333 26.6666 21.3333H29.3333V15.9999H34.6666V21.3333H41.3333V26.6666H26.6666C26.313 26.6666 25.9739 26.8071 25.7238 27.0571C25.4738 27.3072 25.3333 27.6463 25.3333 27.9999C25.3333 28.3535 25.4738 28.6927 25.7238 28.9427C25.9739 29.1928 26.313 29.3333 26.6666 29.3333H37.3333C39.1014 29.3333 40.7971 30.0356 42.0474 31.2859C43.2976 32.5361 44 34.2318 44 35.9999C44 37.768 43.2976 39.4637 42.0474 40.714C40.7971 41.9642 39.1014 42.6666 37.3333 42.6666H34.6666V47.9999H29.3333V42.6666H22.6666V37.3333Z" fill="#121212"/>
</svg>
