<svg width="64" height="64" viewBox="0 0 64 64" fill="none" xmlns="http://www.w3.org/2000/svg">
<path d="M16 5.33325C23.1733 5.33325 29.3973 9.37859 32.5253 15.3093C35.664 10.8879 40.8266 7.99992 46.6666 7.99992H56V14.6666C56 24.2399 48.24 31.9999 38.6666 31.9999H34.6666V34.6666H48V53.3333C48 56.2799 45.6133 58.6666 42.6666 58.6666H21.3333C18.3866 58.6666 16 56.2799 16 53.3333V34.6666H29.3333V29.3333H24C13.6906 29.3333 5.33331 20.9759 5.33331 10.6666V5.33325H16ZM42.6666 39.9999H21.3333V53.3333H42.6666V39.9999ZM50.6666 13.3333H46.6666C40.04 13.3333 34.6666 18.7066 34.6666 25.3333V26.6666H38.6666C45.2933 26.6666 50.6666 21.2933 50.6666 14.6666V13.3333ZM16 10.6666H10.6666C10.6666 18.0293 16.6373 23.9999 24 23.9999H29.3333C29.3333 16.6373 23.3626 10.6666 16 10.6666Z" fill="#121212"/>
</svg>
