<svg width="54" height="54" viewBox="0 0 54 54" fill="none" xmlns="http://www.w3.org/2000/svg">
<path d="M33.3333 0.333344C34.9084 0.332805 36.458 0.730878 37.8378 1.49049C39.2175 2.2501 40.3826 3.34654 41.2246 4.6777C42.0665 6.00886 42.5578 7.53143 42.6529 9.10362C42.7479 10.6758 42.4435 12.2465 41.768 13.6693L50.6667 13.6667C51.3739 13.6667 52.0522 13.9476 52.5523 14.4477C53.0524 14.9478 53.3333 15.6261 53.3333 16.3333V27C53.3333 27.7073 53.0524 28.3855 52.5523 28.8856C52.0522 29.3857 51.3739 29.6667 50.6667 29.6667H48V51C48 51.7073 47.7191 52.3855 47.219 52.8856C46.7189 53.3857 46.0406 53.6667 45.3333 53.6667H8C7.29276 53.6667 6.61448 53.3857 6.11438 52.8856C5.61429 52.3855 5.33333 51.7073 5.33333 51V29.6667H2.66667C1.95942 29.6667 1.28115 29.3857 0.781048 28.8856C0.280951 28.3855 0 27.7073 0 27V16.3333C0 15.6261 0.280951 14.9478 0.781048 14.4477C1.28115 13.9476 1.95942 13.6667 2.66667 13.6667L11.5653 13.6693C10.6153 11.6738 10.4043 9.40589 10.9699 7.26934C11.5354 5.1328 12.8408 3.26626 14.6536 2.00202C16.4664 0.737774 18.6691 0.157864 20.8694 0.365524C23.0698 0.573183 25.125 1.55494 26.6693 3.13601C27.5361 2.24675 28.5725 1.54048 29.7172 1.05907C30.8619 0.57765 32.0915 0.330869 33.3333 0.333344ZM42.6667 29.6667H10.6667V48.3333H42.6667V29.6667ZM48 19H5.33333V24.3333H48V19ZM20 5.66668C18.9728 5.66719 17.9851 6.06288 17.2416 6.77177C16.4982 7.48066 16.056 8.44839 16.0066 9.47445C15.9572 10.5005 16.3045 11.5062 16.9765 12.2832C17.6484 13.0602 18.5935 13.5489 19.616 13.648L20 13.6667H24V9.66668C24 8.67232 23.6295 7.71363 22.961 6.97756C22.2925 6.24149 21.3738 5.7808 20.384 5.68534L20 5.66668ZM33.3333 5.66668L32.9493 5.68534C32.025 5.7739 31.1603 6.18129 30.5034 6.83764C29.8466 7.49399 29.4386 8.35841 29.3493 9.28268L29.3333 9.66668V13.6667H33.3333L33.7173 13.648C34.7067 13.5521 35.625 13.0912 36.2931 12.3552C36.9612 11.6192 37.3313 10.6607 37.3313 9.66668C37.3313 8.67263 36.9612 7.7142 36.2931 6.97818C35.625 6.24215 34.7067 5.78127 33.7173 5.68534L33.3333 5.66668Z" fill="#121212"/>
</svg>
