<svg width="64" height="65" viewBox="0 0 64 65" fill="none" xmlns="http://www.w3.org/2000/svg">
<g clip-path="url(#clip0_23802_20354)">
<path d="M34.667 5.81641V8.48307H53.3337V13.8164H34.667V51.1497H45.3337V56.4831H18.667V51.1497H29.3337V13.8164H10.667V8.48307H29.3337V5.81641H34.667ZM13.3337 17.3977L20.875 24.9417C22.8057 26.8697 24.0003 29.5364 24.0003 32.4831C24.0003 38.3764 19.227 43.1497 13.3337 43.1497C7.44033 43.1497 2.66699 38.3764 2.66699 32.4831C2.66699 29.5364 3.86166 26.8697 5.79233 24.9417L13.3337 17.3977ZM50.667 17.3977L58.2083 24.9417C60.139 26.8697 61.3337 29.5364 61.3337 32.4831C61.3337 38.3764 56.5603 43.1497 50.667 43.1497C44.7737 43.1497 40.0003 38.3764 40.0003 32.4831C40.0003 29.5364 41.195 26.8697 43.1257 24.9417L50.667 17.3977ZM13.3337 24.9417L9.56299 28.7124C8.56566 29.7097 8.00033 31.0431 8.00033 32.4831C8.00033 35.4297 10.387 37.8164 13.3337 37.8164C16.2803 37.8164 18.667 35.4297 18.667 32.4831C18.667 31.0431 18.1017 29.7097 17.1043 28.7124L13.3337 24.9417ZM50.667 24.9417L46.8963 28.7124C45.899 29.7097 45.3337 31.0431 45.3337 32.4831C45.3337 35.4297 47.7203 37.8164 50.667 37.8164C53.6137 37.8164 56.0003 35.4297 56.0003 32.4831C56.0003 31.0431 55.435 29.7097 54.4377 28.7124L50.667 24.9417Z" fill="#121212"/>
</g>
<defs>
<clipPath id="clip0_23802_20354">
<rect width="64" height="64" fill="white" transform="translate(0 0.483032)"/>
</clipPath>
</defs>
</svg>
